:SAMPLES-PER-SECOND 30
:FULLY-SPECIFIED
:DEGREES
232
root  -0.811681 32.0023 12.5235 9.33929 -69.6463 -3.84245
RightUpLeg  -31.2865 -4.48638 4.21898
RightLeg  6.30172 -4.08732 -0.184964
RightFoot  4.31972 0.0311821 -0.449156
RightToes  -26.2347 -0.118871 -0.224964
Spine  5.52617 -6.72004 -0.68098
Spine1  10.3129 -15.2403 0.641551
HEad  5.92899 -13.7754 28.3756
LeftShoulder1  0 -2.42657e-020 -4.95415e-022
LeftArm  -18.8241 -20.6854 -70.7665
LeftForeArm  46.3616 -27.782 -5.30378
LeftHand  0.399146 -10.1583 -4.86176
RightShoulder  0 2.42657e-020 1.07489e-018
RightArm  -81.1706 -25.5255 85.8387
RightForeArm  61.9771 8.25991 1.4197
RightHand  -0.787286 19.332 -4.25127
LeftUpLeg  -6.78291 -4.79534 -1.34011
LeftLeg  32.5531 -1.70927 -0.946321
LeftFoot  -19.3367 0.123786 0.726577
LeftToes  -7.53464 1.33192e-006 1.13262e-007
233
root  0.71496 32.1184 12.1723 9.31129 -69.9221 -3.49835
RightUpLeg  -32.1316 -5.18353 4.07235
RightLeg  9.61798 -3.4187 -0.353419
RightFoot  5.70675 0.0466564 -0.558449
RightToes  -29.1331 -0.137997 -0.245896
Spine  6.05657 -6.23298 -0.771431
Spine1  11.1865 -14.5389 0.985439
HEad  5.15999 -10.3857 25.2759
LeftShoulder1  0 -2.42657e-020 -4.95415e-022
LeftArm  -17.5919 -22.6097 -71.7069
LeftForeArm  47.6655 -26.9586 -5.11667
LeftHand  0.424465 -10.5186 -4.98196
RightShoulder  0 2.42657e-020 1.07489e-018
RightArm  -70.9325 -21.2644 86.2742
RightForeArm  61.883 10.2818 1.78427
RightHand  -0.73399 20.6391 -3.66057
LeftUpLeg  -10.198 -4.32087 -1.59597
LeftLeg  33.4022 -1.70984 -0.980071
LeftFoot  -18.6534 0.114388 0.696475
LeftToes  -6.17022 1.33192e-006 1.13262e-007
234
root  2.05471 32.3227 11.7984 9.33273 -70.9274 -3.42596
RightUpLeg  -32.6642 -4.51613 3.68027
RightLeg  16.2797 -2.51316 -0.560997
RightFoot  5.23027 0.0408122 -0.51591
RightToes  -28.5755 -0.134235 -0.241944
Spine  6.36982 -5.59231 -0.834827
Spine1  11.6996 -13.3136 1.06373
HEad  5.25908 -7.64748 22.7924
LeftShoulder1  0 -2.42657e-020 -4.95415e-022
LeftArm  -17.0169 -22.3133 -72.5757
LeftForeArm  49.1966 -26.2986 -4.96779
LeftHand  0.436701 -10.8161 -4.98356
RightShoulder  0 2.42657e-020 1.07489e-018
RightArm  -58.3991 -17.7012 85.845
RightForeArm  59.591 12.8861 2.26624
RightHand  -0.775139 21.4858 -3.71495
LeftUpLeg  -12.4299 -3.27141 -1.72021
LeftLeg  32.9933 -1.73664 -0.978938
LeftFoot  -16.9281 0.0912267 0.613029
LeftToes  -5.41604 1.33192e-006 1.13262e-007
235
root  3.3009 32.587 11.3839 9.53879 -71.6999 -3.61299
RightUpLeg  -32.3558 -4.88876 3.87023
RightLeg  22.851 -3.68008 -1.28058
RightFoot  3.78485 0.0312269 -0.567417
RightToes  -29.027 -0.137278 -0.245147
Spine  6.51134 -5.08818 -0.808119
Spine1  11.8808 -12.1501 0.939021
HEad  5.93474 -5.16703 20.5518
LeftShoulder1  0 -2.42657e-020 -4.95415e-022
LeftArm  -17.1334 -20.3063 -73.1188
LeftForeArm  50.1323 -25.5328 -4.79858
LeftHand  0.435958 -11.0009 -4.8979
RightShoulder  0 2.42657e-020 1.07489e-018
RightArm  -49.1686 -13.9571 85.184
RightForeArm  58.3755 15.012 2.6659
RightHand  -1.02659 21.9824 -4.91347
LeftUpLeg  -14.3181 -2.23244 -1.56376
LeftLeg  32.1876 -2.08949 -1.13842
LeftFoot  -14.3776 0.072809 0.577234
LeftToes  -5.49523 1.33192e-006 1.13262e-007
236
root  4.43002 32.8728 10.9538 10.7016 -71.8733 -4.63629
RightUpLeg  -31.0748 -6.09116 4.42799
RightLeg  28.7247 -7.25074 -3.38015
RightFoot  1.40917 0.0105954 -0.483756
RightToes  -26.2958 -0.119263 -0.225414
Spine  6.48534 -4.63127 -0.611443
Spine1  11.749 -10.8652 0.772751
HEad  7.01363 -3.17508 18.5173
LeftShoulder1  0 -2.42657e-020 -4.95415e-022
LeftArm  -17.9158 -17.5737 -73.784
LeftForeArm  50.7263 -24.2353 -4.51864
LeftHand  0.444238 -11.0427 -4.96625
RightShoulder  0 2.42657e-020 1.07489e-018
RightArm  -43.5904 -10.71 84.5492
RightForeArm  55.8636 17.561 3.15838
RightHand  -1.08774 22.3965 -5.12175
LeftUpLeg  -15.8548 -1.67586 -1.01782
LeftLeg  30.6267 -2.48618 -1.26696
LeftFoot  -11.5777 0.0519614 0.51253
LeftToes  -6.09785 1.33192e-006 1.13262e-007
237
root  5.49523 33.1051 10.5258 10.9659 -72.1356 -4.83105
RightUpLeg  -28.7203 -6.76905 4.2773
RightLeg  33.8154 -9.94909 -5.73571
RightFoot  -0.864883 -0.00322618 -0.049931
RightToes  -23.2628 -0.100384 -0.202524
Spine  6.46624 -4.05797 -0.569567
Spine1  11.6789 -9.28008 0.310832
HEad  8.11037 -2.01793 17.1473
LeftShoulder1  0 -2.42657e-020 -4.95415e-022
LeftArm  -19.6282 -14.8444 -74.4059
LeftForeArm  51.5848 -22.2076 -4.09278
LeftHand  0.463998 -10.9573 -5.20807
RightShoulder  0 2.42657e-020 1.07489e-018
RightArm  -40.1936 -8.00586 84.0479
RightForeArm  51.4204 20.6008 3.76744
RightHand  -0.985332 22.5888 -4.56194
LeftUpLeg  -16.9248 -1.47796 -0.76585
LeftLeg  28.7087 -2.56683 -1.20135
LeftFoot  -8.76092 0.0288242 0.376271
LeftToes  -6.69794 1.33192e-006 1.13262e-007
